<svg xmlns="http://www.w3.org/2000/svg" width="120" height="40" viewBox="0 0 120 40" fill="none">
  <rect width="120" height="40" rx="4" fill="none"/>
  <path d="M26.4 30h-8.8V10h8.8c6.6 0 11 4.4 11 10s-4.4 10-11 10zm0-16h-4.8v12h4.8c3.9 0 6.4-2.2 6.4-6s-2.5-6-6.4-6z" fill="white"/>
  <path d="M53.1 30l-6.8-8.7V30h-4V10h4v8.1L52.8 10h4.8l-8.1 9.8 8.5 10.2h-4.9z" fill="white"/>
  <path d="M62.4 13.7c-1.4 0-2.4-1-2.4-2.3 0-1.3 1-2.3 2.4-2.3 1.3 0 2.3 1 2.3 2.3 0 1.3-1 2.3-2.3 2.3zm-2 16.3V16.9h4V30h-4z" fill="white"/>
  <path d="M77 29.7c-.8.4-2.4.7-3.9.7-4.9 0-7.9-3.4-7.9-7.6 0-4.3 3-7.6 7.7-7.6 1.5 0 3 .3 3.9.7l-.7 3.1c-.7-.3-1.6-.5-2.7-.5-2.3 0-4 1.6-4 4.2 0 2.5 1.6 4.2 4.1 4.2 1 0 2-.2 2.7-.5l.8 3.3z" fill="white"/>
  <path d="M91.5 23.4c0 4-2.7 7-7.2 7-4.4 0-7.2-3-7.2-7 0-4 2.7-7 7.2-7 4.4 0 7.2 3 7.2 7zm-10.1 0c0 2 1 3.6 2.9 3.6 1.9 0 2.9-1.6 2.9-3.6 0-2-1-3.6-2.9-3.6-1.9 0-2.9 1.6-2.9 3.6z" fill="white"/>
  <path d="M107.4 30h-4V22.7c0-1.7-.6-2.4-1.8-2.4-1.1 0-2.2.8-2.2 2.6V30h-4V16.9h3.7v1.5c.8-1.1 2.3-1.9 4-1.9 2.9 0 4.3 1.9 4.3 4.8V30z" fill="white"/>
</svg> 