<svg xmlns="http://www.w3.org/2000/svg" width="120" height="40" viewBox="0 0 120 40" fill="none">
  <rect width="120" height="40" rx="4" fill="none"/>
  <path d="M22.3 30.3c-5.8 0-10-4-10-10s4.2-10 10-10 10 4 10 10-4.2 10-10 10zm0-16c-3.3 0-5.7 2.6-5.7 6s2.4 6 5.7 6 5.7-2.6 5.7-6-2.4-6-5.7-6z" fill="white"/>
  <path d="M45.4 30.3c-5.8 0-10-4-10-10s4.2-10 10-10 10 4 10 10-4.2 10-10 10zm0-16c-3.3 0-5.7 2.6-5.7 6s2.4 6 5.7 6 5.7-2.6 5.7-6-2.4-6-5.7-6z" fill="white"/>
  <path d="M71.5 10.3v20h-4.3V17.8l-5.2 7.6h-.1l-5.2-7.5v12.4h-4.3v-20h4.6l4.9 7.8 5-7.8h4.6z" fill="white"/>
  <path d="M86 30.3c-5.8 0-10-4-10-10s4.2-10 10-10 10 4 10 10-4.2 10-10 10zm0-16c-3.3 0-5.7 2.6-5.7 6s2.4 6 5.7 6 5.7-2.6 5.7-6-2.4-6-5.7-6z" fill="white"/>
  <path d="M108.7 30.3h-3.9l-7.9-20h4.6l5.2 14.4 5.2-14.4h4.6l-7.8 20z" fill="white"/>
</svg> 