<svg xmlns="http://www.w3.org/2000/svg" width="120" height="40" viewBox="0 0 120 40" fill="none">
  <rect width="120" height="40" rx="4" fill="none"/>
  <path d="M20 25.5c-3.6 0-6.5-2.9-6.5-6.5s2.9-6.5 6.5-6.5 6.5 2.9 6.5 6.5-2.9 6.5-6.5 6.5z" stroke="white" stroke-width="2"/>
  <path d="M36.7 12.5h4.1V30h-4.1V12.5z" fill="white"/>
  <path d="M54.3 30h-4.1v-1.7c-.8 1.2-2.2 2-4.1 2-3.2 0-5.1-2.2-5.1-5.6v-9h4.1v8.1c0 1.9.9 2.8 2.3 2.8 1.5 0 2.7-1 2.7-3.2v-7.8h4.1V30z" fill="white"/>
  <path d="M63.9 30.3c-4.5 0-7.6-3-7.6-7.2 0-4.1 3.1-7.2 7.2-7.2 4.1 0 6.9 3.1 6.9 7.5v1.1H60.5c.3 1.8 1.6 2.8 3.3 2.8 1.3 0 2.3-.6 2.9-1.6l3.2 1.9c-1.2 2-3.5 3.3-6 3.3v-.6zm-.5-11.1c-1.6 0-2.7 1-3 2.6H66c-.2-1.6-1.1-2.6-2.7-2.6h.1z" fill="white"/>
  <path d="M72.3 30V8.5h4.1V30h-4.1z" fill="white"/>
  <path d="M87.5 16l-.6 4c-.6-.3-1.3-.4-2-.4-1.9 0-3.2 1-3.2 3.7V30h-4.1V15.9h4v2.2c.7-1.6 2.2-2.5 4-2.5.7 0 1.3.1 1.9.4z" fill="white"/>
  <path d="M98.4 30h-4.1v-1.7c-.8 1.2-2.3 2-4.1 2-2.9 0-5-2-5-5.1 0-3.3 2.2-5 5.6-5h3.5v-.5c0-1.5-.9-2.2-2.7-2.2-1.2 0-2.7.5-3.8 1.3l-1.5-2.8c1.7-1.2 3.7-1.8 6-1.8 3.8 0 6 1.8 6 5.3V30zm-4.1-6.3v-1.1h-3c-1.5 0-2.2.6-2.2 1.7 0 1.1.8 1.8 2.1 1.8 1.6 0 3.1-.9 3.1-2.4z" fill="white"/>
</svg> 