<svg xmlns="http://www.w3.org/2000/svg" width="120" height="40" viewBox="0 0 120 40" fill="none">
  <rect width="120" height="40" rx="4" fill="none"/>
  <path d="M13 10.3h16.8v4h-12.5v4h10.7v4h-10.7v4h12.5v4H13v-20z" fill="white"/>
  <path d="M33.4 10.3h4.3v15.9h9.7v4.1H33.4v-20z" fill="white"/>
  <path d="M50.4 10.3h4.3v20h-4.3v-20z" fill="white"/>
  <path d="M58.4 10.3h4.3v15.9h9.7v4.1H58.4v-20z" fill="white"/>
  <path d="M77 30.3c-2.9 0-5.3-1-7.1-2.9l2.6-3.1c1.2 1.2 2.6 1.9 4.2 1.9 1.3 0 2-.5 2-1.4v-.1c0-.8-.5-1.3-3.2-1.9-3.2-.8-5.2-1.7-5.2-4.8v-.1c0-2.8 2.3-4.7 5.5-4.7 2.3 0 4.2.7 5.8 2l-2.3 3.3c-1.4-1-2.7-1.5-3.6-1.5s-1.8.5-1.8 1.2v.1c0 .9.6 1.3 3.4 2 3.2.8 5.1 1.9 5.1 4.7v.1c-.1 3.1-2.4 5-5.4 5z" fill="white"/>
  <path d="M88.3 14.5h-6v-4.2h16.3v4.2h-6v15.8h-4.3V14.5z" fill="white"/>
  <path d="M101.6 10.3h4.3v11.6c0 2.7 1.4 4.2 3.7 4.2 2.3 0 3.7-1.4 3.7-4.1V10.3h4.3v11.4c0 5.4-3 8.9-8.1 8.9s-8-3.4-8-8.8V10.3h.1z" fill="white"/>
</svg> 