<svg xmlns="http://www.w3.org/2000/svg" version="1.1" viewBox="1.0199998617172241 0.9898850321769714 428.51513671875 596.0101318359375" width="430.00" height="597.00">
<g stroke-width="2.00" fill="none" stroke-linecap="butt">
<path stroke="#4191ca" stroke-opacity="0.996" d="&#10;  M 366.78 100.70&#10;  L 366.63 101.37&#10;  A 0.42 0.42 0.0 0 1 365.83 101.43&#10;  L 358.91 84.95"/>
<path stroke="#4287c4" stroke-opacity="0.992" d="&#10;  M 358.91 84.95&#10;  Q 352.76 72.52 342.08 59.17&#10;  Q 324.77 37.54 302.44 24.91&#10;  Q 260.88 1.40 212.98 4.83"/>
<path stroke="#4191ca" stroke-opacity="0.996" d="&#10;  M 212.98 4.83&#10;  Q 195.11 6.49 178.02 11.89"/>
<path stroke="#3d9dd3" stroke-opacity="0.992" d="&#10;  M 178.02 11.89&#10;  Q 172.44 13.60 167.09 15.80&#10;  Q 143.78 25.38 124.28 41.32&#10;  Q 121.90 43.27 119.71 45.08"/>
<path stroke="#3ba9db" stroke-opacity="0.992" d="&#10;  M 119.71 45.08&#10;  Q 108.75 54.77 99.16 65.61&#10;  C 97.04 68.00 95.13 70.96 93.06 73.60&#10;  Q 92.27 74.61 91.50 74.06"/>
<path stroke="#41acd6" stroke-opacity="0.992" d="&#10;  M 195.03 65.06&#10;  Q 184.12 73.29 175.13 83.97"/>
<path stroke="#3b93cc" stroke-opacity="0.992" d="&#10;  M 175.13 83.97&#10;  Q 170.78 88.01 166.35 94.60&#10;  Q 160.36 103.51 156.86 110.34&#10;  Q 142.80 137.77 140.46 168.10"/>
<path stroke="#4275b5" stroke-opacity="0.996" d="&#10;  M 139.28 194.18&#10;  C 115.79 213.42 88.25 226.78 58.15 231.68&#10;  A 0.47 0.46 -9.6 0 1 57.62 231.31&#10;  L 57.37 230.03"/>
<path stroke="#3c8dc6" stroke-opacity="0.992" d="&#10;  M 57.73 175.03&#10;  Q 66.25 172.47 74.23 169.02&#10;  C 87.34 163.34 96.91 154.49 104.72 142.59&#10;  C 123.54 113.91 131.11 78.01 119.71 45.08"/>
<path stroke="#4660a7" stroke-opacity="0.996" d="&#10;  M 358.91 84.95&#10;  L 350.83 85.24"/>
<path stroke="#3f71b6" stroke-opacity="0.992" d="&#10;  M 350.83 85.24&#10;  Q 349.11 79.71 346.46 76.76"/>
<path stroke="#4696c7" stroke-opacity="0.992" d="&#10;  M 346.46 76.76&#10;  Q 337.02 58.93 319.63 49.85&#10;  C 290.78 34.79 257.74 34.33 227.52 46.19"/>
<path stroke="#4660a7" stroke-opacity="0.996" d="&#10;  M 227.52 46.19&#10;  C 224.80 31.69 219.45 18.54 212.98 4.83"/>
<path stroke="#4275b5" stroke-opacity="0.996" d="&#10;  M 346.61 212.54&#10;  Q 342.35 212.98 338.16 213.06&#10;  C 333.89 213.14 331.01 213.95 328.01 216.64&#10;  Q 316.95 226.51 306.42 233.52"/>
<path stroke="#45a0cd" stroke-opacity="0.996" d="&#10;  M 227.52 46.19&#10;  Q 209.95 53.22 195.03 65.06"/>
<path stroke="#4275b5" stroke-opacity="0.996" d="&#10;  M 195.03 65.06&#10;  C 186.31 48.04 182.21 30.37 178.02 11.89"/>
<path stroke="#4191ca" stroke-opacity="0.996" d="&#10;  M 132.88 222.72&#10;  Q 121.12 228.13 110.57 235.09&#10;  C 97.57 243.68 84.87 253.32 75.03 265.47"/>
<path stroke="#45a0cd" stroke-opacity="0.996" d="&#10;  M 75.03 265.47&#10;  C 67.92 274.60 61.09 285.94 57.98 297.06&#10;  Q 57.40 299.11 56.65 301.09"/>
<path stroke="#3eb2dd" stroke-opacity="0.992" d="&#10;  M 346.46 76.76&#10;  Q 335.86 63.75 325.19 57.29&#10;  C 300.15 42.14 267.74 40.70 239.75 48.01"/>
<path stroke="#3ebee4" stroke-opacity="0.992" d="&#10;  M 239.75 48.01&#10;  C 226.85 50.94 213.90 56.69 202.63 63.53&#10;  Q 197.00 66.94 188.62 73.39&#10;  Q 181.89 78.58 175.13 83.97"/>
<path stroke="#3e7bbc" stroke-opacity="0.996" d="&#10;  M 350.83 85.24&#10;  C 361.98 116.63 341.09 153.59 318.16 174.20&#10;  Q 311.63 180.07 305.97 184.92&#10;  A 0.94 0.93 -25.0 0 0 305.66 185.77&#10;  C 308.26 201.86 309.57 217.42 306.42 233.52"/>
<path stroke="#3b87c5" stroke-opacity="0.992" d="&#10;  M 306.42 233.52&#10;  Q 291.35 245.59 273.74 253.49&#10;  C 261.03 259.19 245.63 261.00 231.41 261.17&#10;  C 220.93 261.29 210.73 260.29 199.54 260.04&#10;  Q 192.25 259.87 184.91 259.65"/>
<path stroke="#3899d3" stroke-opacity="0.992" d="&#10;  M 184.91 259.65&#10;  Q 188.79 241.90 190.08 223.87&#10;  A 0.54 0.54 0.0 0 1 190.62 223.37&#10;  Q 210.32 223.38 230.21 219.21&#10;  Q 240.53 217.05 246.53 214.83&#10;  A 0.54 0.54 0.0 0 0 246.87 214.17&#10;  Q 243.74 202.89 243.12 198.25&#10;  Q 241.14 183.44 238.20 168.30"/>
<path stroke="#3899d3" stroke-opacity="0.992" d="&#10;  M 240.99 70.99&#10;  C 246.17 62.01 245.16 56.68 239.75 48.01"/>
<path stroke="#485fa9" stroke-opacity="0.996" d="&#10;  M 254.11 271.90&#10;  Q 251.39 273.28 248.39 274.16&#10;  Q 233.05 278.66 217.72 283.20"/>
<path stroke="#7261b5" stroke-opacity="0.996" d="&#10;  M 217.72 283.20&#10;  Q 213.90 282.80 210.39 284.12"/>
<path stroke="#3b93cc" stroke-opacity="0.992" d="&#10;  M 184.91 259.65&#10;  L 176.41 259.38&#10;  A 0.63 0.63 0.0 0 0 176.07 260.56&#10;  Q 192.15 270.05 204.87 275.49&#10;  Q 211.56 278.35 219.63 280.03&#10;  A 0.64 0.64 0.0 0 1 219.69 281.27&#10;  L 210.39 284.12"/>
<path stroke="#6f73c3" stroke-opacity="0.996" d="&#10;  M 210.39 284.12&#10;  L 157.52 299.81"/>
<path stroke="#3aafe1" stroke-opacity="0.992" d="&#10;  M 157.52 299.81&#10;  C 159.11 291.19 160.05 279.96 157.83 271.72&#10;  C 155.44 262.81 147.07 262.90 141.94 258.89&#10;  Q 136.20 254.41 134.83 246.98&#10;  Q 132.73 235.60 132.88 222.72"/>
<path stroke="#3f87c3" stroke-opacity="0.996" d="&#10;  M 132.88 222.72&#10;  L 142.99 217.02"/>
<path stroke="#717dca" stroke-opacity="0.996" d="&#10;  M 157.52 299.81&#10;  Q 143.60 305.16 129.05 312.79&#10;  Q 93.71 331.32 74.41 365.71"/>
<path stroke="#40c8eb" stroke-opacity="0.992" d="&#10;  M 74.41 365.71&#10;  Q 71.91 352.96 71.91 340.02&#10;  C 71.92 326.22 75.64 307.62 75.39 293.14&#10;  Q 75.15 279.37 75.03 265.47"/>
<path stroke="#758ccd" stroke-opacity="0.996" d="&#10;  M 74.41 365.71&#10;  C 67.52 378.87 63.21 393.00 63.66 407.95"/>
<path stroke="#578bc6" stroke-opacity="0.996" d="&#10;  M 63.66 407.95&#10;  Q 64.20 410.18 63.35 409.98"/>
<path stroke="#8841a7" stroke-opacity="0.996" d="&#10;  M 152.90 304.02&#10;  Q 132.63 311.91 116.49 323.49&#10;  Q 97.40 337.20 82.88 358.64&#10;  Q 74.29 371.32 69.45 385.79&#10;  Q 68.75 387.88 66.96 396.60&#10;  Q 65.77 402.39 63.66 407.95"/>
<path stroke="#693e9d" stroke-opacity="0.996" d="&#10;  M 289.50 305.51&#10;  Q 284.91 306.08 283.78 306.46&#10;  C 247.98 318.34 208.67 322.79 171.14 321.40&#10;  Q 169.88 321.36 169.21 323.03"/>
<path stroke="#5e3e9b" stroke-opacity="0.996" d="&#10;  M 152.81 305.40&#10;  L 152.90 304.02"/>
<path stroke="#7c40a1" stroke-opacity="0.996" d="&#10;  M 152.90 304.02&#10;  Q 161.42 300.60 167.00 298.75&#10;  Q 189.71 291.24 217.72 283.20"/>
<path stroke="#753fa2" stroke-opacity="0.996" d="&#10;  M 115.85 398.02&#10;  C 96.51 398.93 80.08 403.44 66.07 417.78"/>
<path stroke="#8a40a7" stroke-opacity="0.992" d="&#10;  M 305.96 322.14&#10;  Q 293.03 333.91 278.59 339.31&#10;  C 267.89 343.31 257.55 347.12 246.89 352.06&#10;  Q 231.32 359.26 215.51 366.06"/>
<path stroke="#9d41ab" stroke-opacity="0.996" d="&#10;  M 349.38 372.26&#10;  C 337.65 377.45 326.23 382.93 314.35 387.70&#10;  C 300.85 393.12 289.70 397.87 277.67 405.61"/>
</g>
<path fill="#3cb9e8" fill-opacity="0.992" d="&#10;  M 366.78 100.70&#10;  L 366.63 101.37&#10;  A 0.42 0.42 0.0 0 1 365.83 101.43&#10;  L 358.91 84.95&#10;  Q 352.76 72.52 342.08 59.17&#10;  Q 324.77 37.54 302.44 24.91&#10;  Q 260.88 1.40 212.98 4.83&#10;  Q 195.11 6.49 178.02 11.89&#10;  Q 172.44 13.60 167.09 15.80&#10;  Q 143.78 25.38 124.28 41.32&#10;  Q 121.90 43.27 119.71 45.08&#10;  Q 108.75 54.77 99.16 65.61&#10;  C 97.04 68.00 95.13 70.96 93.06 73.60&#10;  Q 92.27 74.61 91.50 74.06&#10;  Q 105.66 53.63 122.73 39.24&#10;  Q 143.85 21.44 172.62 10.32&#10;  Q 175.06 9.38 176.97 8.88&#10;  Q 180.36 7.98 181.30 7.40&#10;  A 2.14 2.07 -61.9 0 1 182.20 7.11&#10;  Q 184.35 6.96 187.98 5.47&#10;  A 4.54 4.35 -57.6 0 1 189.28 5.15&#10;  Q 193.00 4.80 196.90 3.50&#10;  A 3.67 3.62 -56.7 0 1 197.74 3.32&#10;  Q 200.95 3.03 208.12 1.84&#10;  Q 213.27 0.98 218.51 0.99&#10;  Q 229.00 1.01 236.81 1.11&#10;  Q 239.89 1.14 244.65 1.87&#10;  Q 251.88 2.98 252.47 2.99&#10;  C 255.60 3.05 259.84 4.74 263.24 5.26&#10;  A 7.58 7.48 59.4 0 1 264.76 5.66&#10;  Q 267.62 6.73 268.24 6.83&#10;  Q 270.06 7.12 271.61 7.59&#10;  Q 285.58 11.89 298.47 18.76&#10;  Q 332.09 36.68 352.01 68.24&#10;  Q 361.32 82.99 366.78 100.70&#10;  Z"/>
<path fill="#4755a0" fill-opacity="0.992" d="&#10;  M 358.91 84.95&#10;  L 350.83 85.24&#10;  Q 349.11 79.71 346.46 76.76&#10;  Q 337.02 58.93 319.63 49.85&#10;  C 290.78 34.79 257.74 34.33 227.52 46.19&#10;  C 224.80 31.69 219.45 18.54 212.98 4.83&#10;  Q 260.88 1.40 302.44 24.91&#10;  Q 324.77 37.54 342.08 59.17&#10;  Q 352.76 72.52 358.91 84.95&#10;  Z"/>
<path fill="#456aad" fill-opacity="0.996" d="&#10;  M 212.98 4.83&#10;  C 219.45 18.54 224.80 31.69 227.52 46.19&#10;  Q 209.95 53.22 195.03 65.06&#10;  C 186.31 48.04 182.21 30.37 178.02 11.89&#10;  Q 195.11 6.49 212.98 4.83&#10;  Z"/>
<path fill="#3e81be" fill-opacity="0.992" d="&#10;  M 178.02 11.89&#10;  C 182.21 30.37 186.31 48.04 195.03 65.06&#10;  Q 184.12 73.29 175.13 83.97&#10;  Q 170.78 88.01 166.35 94.60&#10;  Q 160.36 103.51 156.86 110.34&#10;  Q 142.80 137.77 140.46 168.10&#10;  Q 138.99 181.45 139.28 194.18&#10;  C 115.79 213.42 88.25 226.78 58.15 231.68&#10;  A 0.47 0.46 -9.6 0 1 57.62 231.31&#10;  L 57.37 230.03&#10;  Q 57.14 206.90 57.09 183.75&#10;  Q 57.08 179.34 57.73 175.03&#10;  Q 66.25 172.47 74.23 169.02&#10;  C 87.34 163.34 96.91 154.49 104.72 142.59&#10;  C 123.54 113.91 131.11 78.01 119.71 45.08&#10;  Q 121.90 43.27 124.28 41.32&#10;  Q 143.78 25.38 167.09 15.80&#10;  Q 172.44 13.60 178.02 11.89&#10;  Z"/>
<path fill="#44d7ed" fill-opacity="0.992" d="&#10;  M 346.46 76.76&#10;  Q 335.86 63.75 325.19 57.29&#10;  C 300.15 42.14 267.74 40.70 239.75 48.01&#10;  C 226.85 50.94 213.90 56.69 202.63 63.53&#10;  Q 197.00 66.94 188.62 73.39&#10;  Q 181.89 78.58 175.13 83.97&#10;  Q 184.12 73.29 195.03 65.06&#10;  Q 209.95 53.22 227.52 46.19&#10;  C 257.74 34.33 290.78 34.79 319.63 49.85&#10;  Q 337.02 58.93 346.46 76.76&#10;  Z"/>
<path fill="#378dcc" fill-opacity="0.992" d="&#10;  M 346.46 76.76&#10;  Q 349.11 79.71 350.83 85.24&#10;  C 361.98 116.63 341.09 153.59 318.16 174.20&#10;  Q 311.63 180.07 305.97 184.92&#10;  A 0.94 0.93 -25.0 0 0 305.66 185.77&#10;  C 308.26 201.86 309.57 217.42 306.42 233.52&#10;  Q 291.35 245.59 273.74 253.49&#10;  C 261.03 259.19 245.63 261.00 231.41 261.17&#10;  C 220.93 261.29 210.73 260.29 199.54 260.04&#10;  Q 192.25 259.87 184.91 259.65&#10;  Q 188.79 241.90 190.08 223.87&#10;  A 0.54 0.54 0.0 0 1 190.62 223.37&#10;  Q 210.32 223.38 230.21 219.21&#10;  Q 240.53 217.05 246.53 214.83&#10;  A 0.54 0.54 0.0 0 0 246.87 214.17&#10;  Q 243.74 202.89 243.12 198.25&#10;  Q 241.14 183.44 238.20 168.30&#10;  Q 247.54 163.08 258.59 155.10&#10;  Q 274.78 143.41 284.01 128.03&#10;  Q 287.82 121.68 289.83 111.87&#10;  C 292.61 98.37 287.97 85.81 276.42 77.95&#10;  Q 273.07 75.66 267.70 73.78&#10;  Q 261.43 71.57 258.37 71.14&#10;  Q 252.66 70.32 240.99 70.99&#10;  C 246.17 62.01 245.16 56.68 239.75 48.01&#10;  C 267.74 40.70 300.15 42.14 325.19 57.29&#10;  Q 335.86 63.75 346.46 76.76&#10;  Z"/>
<path fill="#3999ce" fill-opacity="0.992" d="&#10;  M 57.73 175.03&#10;  C 58.03 172.04 57.93 168.57 58.54 165.99&#10;  C 59.23 163.08 58.99 160.34 59.51 156.97&#10;  C 64.14 127.24 74.32 98.80 91.50 74.06&#10;  Q 92.27 74.61 93.06 73.60&#10;  C 95.13 70.96 97.04 68.00 99.16 65.61&#10;  Q 108.75 54.77 119.71 45.08&#10;  C 131.11 78.01 123.54 113.91 104.72 142.59&#10;  C 96.91 154.49 87.34 163.34 74.23 169.02&#10;  Q 66.25 172.47 57.73 175.03&#10;  Z"/>
<path fill="#38a5da" fill-opacity="0.992" d="&#10;  M 240.99 70.99&#10;  C 236.54 70.89 232.48 72.06 228.58 72.85&#10;  Q 224.34 73.70 222.81 74.17&#10;  Q 189.17 84.45 166.81 111.56&#10;  Q 152.05 129.47 144.99 151.26&#10;  C 144.86 151.67 144.86 152.61 144.58 153.19&#10;  Q 143.05 156.35 142.84 159.58&#10;  A 2.91 1.45 -55.5 0 1 142.78 159.91&#10;  L 140.46 168.10&#10;  Q 142.80 137.77 156.86 110.34&#10;  Q 160.36 103.51 166.35 94.60&#10;  Q 170.78 88.01 175.13 83.97&#10;  Q 181.89 78.58 188.62 73.39&#10;  Q 197.00 66.94 202.63 63.53&#10;  C 213.90 56.69 226.85 50.94 239.75 48.01&#10;  C 245.16 56.68 246.17 62.01 240.99 70.99&#10;  Z"/>
<path fill="#456aad" fill-opacity="0.996" d="&#10;  M 358.91 84.95&#10;  L 365.83 101.43&#10;  A 0.42 0.42 0.0 0 0 366.63 101.37&#10;  L 366.78 100.70&#10;  Q 370.67 115.24 370.89 123.50&#10;  Q 371.23 135.69 370.86 146.50&#10;  Q 370.74 149.99 368.75 161.29&#10;  C 365.60 179.22 357.83 197.72 346.61 212.54&#10;  Q 342.35 212.98 338.16 213.06&#10;  C 333.89 213.14 331.01 213.95 328.01 216.64&#10;  Q 316.95 226.51 306.42 233.52&#10;  C 309.57 217.42 308.26 201.86 305.66 185.77&#10;  A 0.94 0.93 -25.0 0 1 305.97 184.92&#10;  Q 311.63 180.07 318.16 174.20&#10;  C 341.09 153.59 361.98 116.63 350.83 85.24&#10;  L 358.91 84.95&#10;  Z"/>
<path fill="#38a5da" fill-opacity="0.992" d="&#10;  M 238.20 168.30&#10;  Q 241.14 183.44 243.12 198.25&#10;  Q 243.74 202.89 246.87 214.17&#10;  A 0.54 0.54 0.0 0 1 246.53 214.83&#10;  Q 240.53 217.05 230.21 219.21&#10;  Q 210.32 223.38 190.62 223.37&#10;  A 0.54 0.54 0.0 0 0 190.08 223.87&#10;  Q 188.79 241.90 184.91 259.65&#10;  L 176.41 259.38&#10;  A 0.63 0.63 0.0 0 0 176.07 260.56&#10;  Q 192.15 270.05 204.87 275.49&#10;  Q 211.56 278.35 219.63 280.03&#10;  A 0.64 0.64 0.0 0 1 219.69 281.27&#10;  L 210.39 284.12&#10;  L 157.52 299.81&#10;  C 159.11 291.19 160.05 279.96 157.83 271.72&#10;  C 155.44 262.81 147.07 262.90 141.94 258.89&#10;  Q 136.20 254.41 134.83 246.98&#10;  Q 132.73 235.60 132.88 222.72&#10;  L 142.99 217.02&#10;  Q 143.76 217.47 144.19 217.21&#10;  Q 148.76 214.45 153.52 212.04&#10;  Q 188.28 194.42 223.03 176.79&#10;  Q 226.36 175.10 238.20 168.30&#10;  Z"/>
<path fill="#456aad" fill-opacity="0.996" d="&#10;  M 139.28 194.18&#10;  Q 140.32 204.69 142.00 214.99&#10;  Q 142.13 215.80 142.99 217.02&#10;  L 132.88 222.72&#10;  Q 121.12 228.13 110.57 235.09&#10;  C 97.57 243.68 84.87 253.32 75.03 265.47&#10;  C 67.92 274.60 61.09 285.94 57.98 297.06&#10;  Q 57.40 299.11 56.65 301.09&#10;  L 57.37 230.03&#10;  L 57.62 231.31&#10;  A 0.47 0.46 -9.6 0 0 58.15 231.68&#10;  C 88.25 226.78 115.79 213.42 139.28 194.18&#10;  Z"/>
<path fill="#3e81be" fill-opacity="0.992" d="&#10;  M 346.61 212.54&#10;  C 335.86 226.71 322.05 238.32 307.04 247.40&#10;  C 292.98 255.90 276.06 263.91 259.65 269.94&#10;  Q 256.92 270.94 254.11 271.90&#10;  Q 251.39 273.28 248.39 274.16&#10;  Q 233.05 278.66 217.72 283.20&#10;  Q 213.90 282.80 210.39 284.12&#10;  L 219.69 281.27&#10;  A 0.64 0.64 0.0 0 0 219.63 280.03&#10;  Q 211.56 278.35 204.87 275.49&#10;  Q 192.15 270.05 176.07 260.56&#10;  A 0.63 0.63 0.0 0 1 176.41 259.38&#10;  L 184.91 259.65&#10;  Q 192.25 259.87 199.54 260.04&#10;  C 210.73 260.29 220.93 261.29 231.41 261.17&#10;  C 245.63 261.00 261.03 259.19 273.74 253.49&#10;  Q 291.35 245.59 306.42 233.52&#10;  Q 316.95 226.51 328.01 216.64&#10;  C 331.01 213.95 333.89 213.14 338.16 213.06&#10;  Q 342.35 212.98 346.61 212.54&#10;  Z"/>
<path fill="#3cb9e8" fill-opacity="0.992" d="&#10;  M 132.88 222.72&#10;  Q 132.73 235.60 134.83 246.98&#10;  Q 136.20 254.41 141.94 258.89&#10;  C 147.07 262.90 155.44 262.81 157.83 271.72&#10;  C 160.05 279.96 159.11 291.19 157.52 299.81&#10;  Q 143.60 305.16 129.05 312.79&#10;  Q 93.71 331.32 74.41 365.71&#10;  Q 71.91 352.96 71.91 340.02&#10;  C 71.92 326.22 75.64 307.62 75.39 293.14&#10;  Q 75.15 279.37 75.03 265.47&#10;  C 84.87 253.32 97.57 243.68 110.57 235.09&#10;  Q 121.12 228.13 132.88 222.72&#10;  Z"/>
<path fill="#44d7ed" fill-opacity="0.992" d="&#10;  M 75.03 265.47&#10;  Q 75.15 279.37 75.39 293.14&#10;  C 75.64 307.62 71.92 326.22 71.91 340.02&#10;  Q 71.91 352.96 74.41 365.71&#10;  C 67.52 378.87 63.21 393.00 63.66 407.95&#10;  Q 64.20 410.18 63.35 409.98&#10;  Q 62.47 408.07 61.89 406.13&#10;  Q 57.13 390.20 55.50 376.90&#10;  Q 52.89 355.72 53.25 343.74&#10;  Q 53.67 329.41 54.26 325.50&#10;  C 55.09 319.99 54.96 315.60 55.67 310.15&#10;  Q 56.26 305.63 56.65 301.09&#10;  Q 57.40 299.11 57.98 297.06&#10;  C 61.09 285.94 67.92 274.60 75.03 265.47&#10;  Z"/>
<path fill="#523d95" fill-opacity="0.996" d="&#10;  M 254.11 271.90&#10;  C 254.12 274.23 255.52 274.39 256.88 275.57&#10;  Q 273.64 290.03 289.50 305.51&#10;  Q 284.91 306.08 283.78 306.46&#10;  C 247.98 318.34 208.67 322.79 171.14 321.40&#10;  Q 169.88 321.36 169.21 323.03&#10;  Q 162.63 315.36 155.99 307.79&#10;  C 155.18 306.86 154.61 305.00 152.81 305.40&#10;  L 152.90 304.02&#10;  Q 161.42 300.60 167.00 298.75&#10;  Q 189.71 291.24 217.72 283.20&#10;  Q 233.05 278.66 248.39 274.16&#10;  Q 251.39 273.28 254.11 271.90&#10;  Z"/>
<path fill="#a642ad" fill-opacity="0.996" d="&#10;  M 217.72 283.20&#10;  Q 189.71 291.24 167.00 298.75&#10;  Q 161.42 300.60 152.90 304.02&#10;  Q 132.63 311.91 116.49 323.49&#10;  Q 97.40 337.20 82.88 358.64&#10;  Q 74.29 371.32 69.45 385.79&#10;  Q 68.75 387.88 66.96 396.60&#10;  Q 65.77 402.39 63.66 407.95&#10;  C 63.21 393.00 67.52 378.87 74.41 365.71&#10;  Q 93.71 331.32 129.05 312.79&#10;  Q 143.60 305.16 157.52 299.81&#10;  L 210.39 284.12&#10;  Q 213.90 282.80 217.72 283.20&#10;  Z"/>
<path fill="#6a3fa0" fill-opacity="0.996" d="&#10;  M 152.90 304.02&#10;  L 152.81 305.40&#10;  Q 151.85 305.93 151.62 306.63&#10;  Q 146.27 323.03 140.72 339.36&#10;  Q 132.91 362.31 122.88 384.38&#10;  Q 119.71 391.34 115.85 398.02&#10;  C 96.51 398.93 80.08 403.44 66.07 417.78&#10;  L 63.35 409.98&#10;  Q 64.20 410.18 63.66 407.95&#10;  Q 65.77 402.39 66.96 396.60&#10;  Q 68.75 387.88 69.45 385.79&#10;  Q 74.29 371.32 82.88 358.64&#10;  Q 97.40 337.20 116.49 323.49&#10;  Q 132.63 311.91 152.90 304.02&#10;  Z"/>
<path fill="#8040a5" fill-opacity="0.992" d="&#10;  M 289.50 305.51&#10;  L 305.96 322.14&#10;  Q 293.03 333.91 278.59 339.31&#10;  C 267.89 343.31 257.55 347.12 246.89 352.06&#10;  Q 231.32 359.26 215.51 366.06&#10;  C 198.56 353.08 183.88 338.87 169.21 323.03&#10;  Q 169.88 321.36 171.14 321.40&#10;  C 208.67 322.79 247.98 318.34 283.78 306.46&#10;  Q 284.91 306.08 289.50 305.51&#10;  Z"/>
<path fill="#9340a9" fill-opacity="0.992" d="&#10;  M 305.96 322.14&#10;  Q 329.06 346.14 349.38 372.26&#10;  C 337.65 377.45 326.23 382.93 314.35 387.70&#10;  C 300.85 393.12 289.70 397.87 277.67 405.61&#10;  Q 254.91 394.23 236.49 381.76&#10;  Q 227.91 375.95 215.51 366.06&#10;  Q 231.32 359.26 246.89 352.06&#10;  C 257.55 347.12 267.89 343.31 278.59 339.31&#10;  Q 293.03 333.91 305.96 322.14&#10;  Z"/>
<path fill="#a642ad" fill-opacity="0.996" d="&#10;  M 349.38 372.26&#10;  Q 353.61 378.00 357.81 383.71&#10;  Q 363.56 391.55 368.41 402.75&#10;  Q 371.78 410.54 370.90 415.80&#10;  Q 369.70 422.85 363.27 426.25&#10;  A 4.70 4.53 -66.0 0 1 362.31 426.64&#10;  Q 354.54 428.94 346.27 427.88&#10;  C 337.42 426.76 329.35 425.26 320.75 422.64&#10;  Q 298.60 415.89 277.67 405.61&#10;  C 289.70 397.87 300.85 393.12 314.35 387.70&#10;  C 326.23 382.93 337.65 377.45 349.38 372.26&#10;  Z"/>
<path fill="#8040a5" fill-opacity="0.992" d="&#10;  M 115.85 398.02&#10;  Q 110.18 408.62 102.07 417.57&#10;  Q 99.00 420.97 95.29 423.56&#10;  Q 91.29 426.36 87.22 427.60&#10;  Q 73.65 431.73 66.07 417.78&#10;  C 80.08 403.44 96.51 398.93 115.85 398.02&#10;  Z"/>
<path fill="#000000" fill-opacity="0.992" d="&#10;  M 106.56 523.60&#10;  C 113.75 528.60 120.52 530.91 129.24 530.76&#10;  Q 131.07 530.73 135.62 528.81&#10;  A 2.68 2.64 -79.1 0 0 136.42 528.26&#10;  C 141.53 522.92 137.96 518.29 132.35 516.46&#10;  Q 128.86 515.32 125.46 514.71&#10;  Q 118.53 513.45 112.08 510.23&#10;  Q 105.53 506.97 103.55 500.21&#10;  C 102.78 497.59 103.03 494.41 103.07 491.82&#10;  A 3.76 3.65 -36.6 0 1 103.24 490.78&#10;  Q 105.06 484.70 109.60 481.63&#10;  C 120.25 474.43 136.09 476.18 147.11 481.67&#10;  Q 148.52 482.36 149.55 483.19&#10;  A 0.74 0.74 0.0 0 1 149.75 484.09&#10;  L 145.79 492.18&#10;  A 1.71 1.70 -65.1 0 1 143.57 493.00&#10;  L 135.75 489.58&#10;  A 4.73 4.59 -29.1 0 0 134.41 489.22&#10;  Q 130.96 488.80 129.82 488.46&#10;  C 122.99 486.40 110.48 491.16 117.53 499.35&#10;  C 118.76 500.78 122.23 502.03 124.62 502.54&#10;  C 133.58 504.43 142.62 506.52 148.12 512.18&#10;  Q 151.00 515.15 151.75 521.35&#10;  C 152.01 523.53 151.23 526.99 150.79 528.88&#10;  Q 150.03 532.13 146.74 535.24&#10;  C 140.91 540.77 132.81 541.42 124.49 541.13&#10;  Q 111.00 540.66 100.03 532.43&#10;  A 0.65 0.65 0.0 0 1 99.89 531.54&#10;  L 105.37 523.81&#10;  A 0.86 0.86 0.0 0 1 106.56 523.60&#10;  Z"/>
<path fill="#000000" fill-opacity="0.992" d="&#10;  M 240.19 508.59&#10;  L 242.93 506.50&#10;  A 0.39 0.38 -25.7 0 0 243.07 506.12&#10;  Q 242.92 505.33 244.35 504.81&#10;  A 0.19 0.11 -61.0 0 0 244.43 504.76&#10;  Q 258.34 488.98 265.50 480.50&#10;  Q 266.62 479.17 268.23 478.23&#10;  A 1.99 1.89 28.1 0 1 269.17 477.97&#10;  Q 270.77 477.95 278.76 477.88&#10;  Q 280.10 477.86 281.59 477.34&#10;  A 0.78 0.78 0.0 0 1 282.47 478.54&#10;  C 280.69 480.94 278.54 482.78 276.80 484.81&#10;  Q 269.61 493.21 260.01 503.91&#10;  C 259.35 504.65 258.36 505.00 258.01 505.51&#10;  A 0.92 0.92 0.0 0 0 257.93 506.42&#10;  Q 258.92 508.57 260.33 509.80&#10;  A 3.02 2.95 -89.3 0 1 260.73 510.22&#10;  L 283.16 539.52&#10;  A 0.73 0.73 0.0 0 1 282.58 540.70&#10;  L 271.31 540.70&#10;  A 3.93 3.93 0.0 0 1 268.19 539.16&#10;  L 251.12 516.86&#10;  A 1.63 1.63 0.0 0 0 248.68 516.70&#10;  Q 245.13 520.24 240.20 526.22&#10;  Q 239.62 526.92 239.70 528.71&#10;  Q 239.78 530.45 239.64 531.30&#10;  Q 239.16 534.36 239.31 539.15&#10;  A 1.66 1.66 0.0 0 1 237.65 540.86&#10;  L 228.34 540.86&#10;  A 1.28 1.27 -0.0 0 1 227.06 539.59&#10;  L 227.06 479.47&#10;  A 1.61 1.61 0.0 0 1 228.67 477.86&#10;  L 237.54 477.86&#10;  A 1.75 1.74 90.0 0 1 239.28 479.61&#10;  L 239.28 508.14&#10;  A 0.57 0.57 0.0 0 0 240.19 508.59&#10;  Z"/>
<path fill="#000000" fill-opacity="0.992" d="&#10;  M 54.71 539.30&#10;  A 0.93 0.93 0.0 0 1 53.97 540.80&#10;  L 42.85 540.80&#10;  A 2.72 2.62 55.9 0 1 41.77 540.57&#10;  Q 40.44 540.00 39.31 538.53&#10;  Q 34.90 532.80 28.73 523.82&#10;  Q 28.15 522.98 26.26 521.65&#10;  A 0.61 0.58 -26.6 0 0 25.87 521.53&#10;  L 14.13 522.01&#10;  A 1.17 1.17 0.0 0 0 13.00 523.18&#10;  L 13.00 539.46&#10;  A 1.28 1.28 0.0 0 1 11.72 540.74&#10;  L 2.66 540.74&#10;  A 1.64 1.64 0.0 0 1 1.02 539.10&#10;  L 1.02 478.77&#10;  A 0.80 0.80 0.0 0 1 1.81 477.97&#10;  Q 17.14 477.75 26.25 477.72&#10;  Q 33.54 477.69 38.21 479.15&#10;  Q 44.45 481.09 48.10 484.86&#10;  Q 49.85 486.67 50.87 488.37&#10;  Q 53.55 492.87 53.86 499.62&#10;  A 5.73 5.72 -39.5 0 1 53.71 501.16&#10;  C 53.02 503.95 53.11 506.33 51.92 509.02&#10;  Q 48.78 516.10 41.28 519.00&#10;  A 1.31 1.31 0.0 0 0 40.72 521.02&#10;  L 54.71 539.30&#10;  Z&#10;  M 12.99 490.59&#10;  L 13.25 509.50&#10;  A 1.52 1.52 0.0 0 0 14.79 511.00&#10;  L 29.52 510.80&#10;  A 11.79 9.34 -0.8 0 0 41.18 501.29&#10;  L 41.14 498.01&#10;  A 11.79 9.34 -0.8 0 0 29.22 488.84&#10;  L 14.49 489.05&#10;  A 1.52 1.52 0.0 0 0 12.99 490.59&#10;  Z"/>
<path fill="#000000" fill-opacity="0.992" d="&#10;  M 210.59 477.87&#10;  A 2.05 2.05 0.0 0 1 212.64 479.92&#10;  L 212.64 487.49&#10;  A 1.48 1.48 0.0 0 1 211.17 488.97&#10;  Q 192.25 489.05 180.48 488.92&#10;  Q 178.48 488.90 178.20 489.57&#10;  C 177.78 490.55 178.61 491.64 178.63 492.80&#10;  Q 178.71 500.51 178.65 502.15&#10;  A 1.29 1.28 1.1 0 0 179.94 503.48&#10;  L 205.81 503.48&#10;  A 1.97 1.97 0.0 0 1 207.78 505.45&#10;  L 207.78 513.71&#10;  A 1.20 1.19 0.0 0 1 206.58 514.90&#10;  L 179.39 514.90&#10;  A 1.21 1.21 0.0 0 0 178.19 516.22&#10;  Q 178.41 518.82 178.61 525.58&#10;  C 178.64 526.57 177.83 528.22 179.02 529.19&#10;  Q 179.46 529.55 180.91 529.54&#10;  Q 194.43 529.45 210.82 529.19&#10;  A 2.08 2.08 0.0 0 1 212.93 531.27&#10;  L 212.93 539.54&#10;  A 1.33 1.33 0.0 0 1 211.60 540.87&#10;  L 167.47 540.87&#10;  A 1.41 1.41 0.0 0 1 166.06 539.46&#10;  Q 166.06 538.24 166.06 485.50&#10;  Q 166.06 482.99 165.61 479.47&#10;  A 1.42 1.42 0.0 0 1 167.02 477.87&#10;  L 210.59 477.87&#10;  Z"/>
<path fill="#000000" fill-opacity="0.992" d="&#10;  M 427.97 478.46&#10;  Q 426.59 481.51 423.47 484.69&#10;  A 1.54 1.21 -11.7 0 0 423.31 484.88&#10;  L 407.27 507.60&#10;  A 1.16 1.16 0.0 0 0 407.28 508.95&#10;  L 429.38 539.45&#10;  A 0.82 0.82 0.0 0 1 428.72 540.75&#10;  L 417.64 540.80&#10;  A 2.95 2.74 51.0 0 1 416.73 540.67&#10;  Q 415.62 540.34 414.27 538.49&#10;  Q 408.65 530.75 400.40 519.55&#10;  A 1.25 1.24 -45.5 0 0 398.38 519.57&#10;  L 384.79 538.76&#10;  A 4.01 4.01 0.0 0 1 381.52 540.45&#10;  L 370.95 540.45&#10;  A 0.64 0.64 0.0 0 1 370.43 539.44&#10;  L 390.56 511.02&#10;  A 3.98 3.96 -45.4 0 0 390.54 506.39&#10;  L 370.77 479.11&#10;  A 0.65 0.65 0.0 0 1 371.29 478.08&#10;  L 383.10 478.08&#10;  A 2.83 2.81 -17.6 0 1 385.40 479.26&#10;  Q 390.62 486.54 396.32 494.92&#10;  Q 397.22 496.24 397.33 496.62&#10;  A 1.91 1.90 54.3 0 0 400.74 497.18&#10;  Q 406.37 488.91 413.07 479.54&#10;  A 3.94 3.94 0.0 0 1 416.27 477.90&#10;  L 427.61 477.90&#10;  A 0.40 0.40 0.0 0 1 427.97 478.46&#10;  Z"/>
<path fill="#378dcc" fill-opacity="0.992" d="&#10;  M 71.21 478.09&#10;  L 83.52 478.09&#10;  A 1.81 1.81 0.0 0 1 85.33 479.90&#10;  L 85.33 501.36&#10;  A 1.81 1.81 0.0 0 1 83.52 503.17&#10;  L 71.21 503.17&#10;  A 1.81 1.81 0.0 0 1 69.40 501.36&#10;  L 69.40 479.90&#10;  A 1.81 1.81 0.0 0 1 71.21 478.09&#10;  Z"/>
<path fill="#000000" fill-opacity="0.992" d="&#10;  M 293.78 540.84&#10;  A 0.88 0.88 0.0 0 1 292.90 539.97&#10;  Q 292.62 512.11 292.82 492.25&#10;  Q 292.86 488.29 292.20 480.75&#10;  Q 291.94 477.77 294.98 477.87&#10;  Q 296.40 477.91 303.15 477.97&#10;  A 1.80 1.80 0.0 0 1 304.94 479.77&#10;  L 304.94 528.81&#10;  A 1.06 1.06 0.0 0 0 306.02 529.87&#10;  Q 332.30 529.51 333.97 529.52&#10;  Q 336.20 529.53 336.12 532.54&#10;  Q 336.02 536.04 335.94 539.48&#10;  A 1.39 1.39 0.0 0 1 334.55 540.84&#10;  L 293.78 540.84&#10;  Z"/>
<rect fill="#000000" fill-opacity="0.992" x="-6.14" y="-31.35" transform="translate(353.76,509.30) rotate(-0.2)" width="12.28" height="62.70" rx="1.56"/>
<ellipse fill="#9340a9" fill-opacity="0.992" cx="0.00" cy="0.00" transform="translate(77.88,533.01) rotate(-7.2)" rx="8.52" ry="8.08"/>
<path fill="#000000" fill-opacity="0.992" d="&#10;  M 150.05 597.00&#10;  L 143.52 597.00&#10;  L 138.10 595.00&#10;  A 3.64 3.64 0.0 0 1 137.38 594.64&#10;  C 131.81 591.09 128.55 585.34 129.02 578.51&#10;  Q 129.69 568.91 138.28 564.38&#10;  Q 140.64 563.14 142.30 562.95&#10;  C 144.17 562.73 145.70 561.98 147.91 562.14&#10;  Q 154.97 562.65 159.85 566.96&#10;  A 1.08 1.07 -40.9 0 1 159.72 568.67&#10;  L 159.38 568.89&#10;  A 1.74 1.73 -44.8 0 1 157.47 568.89&#10;  Q 154.11 566.66 151.19 565.98&#10;  Q 139.28 563.24 133.44 573.87&#10;  A 3.31 3.05 66.3 0 0 133.10 574.86&#10;  Q 132.30 579.31 133.01 584.36&#10;  A 3.25 3.02 -64.0 0 0 133.28 585.25&#10;  Q 137.43 593.66 147.20 594.13&#10;  A 5.17 5.03 -50.4 0 0 148.78 593.96&#10;  Q 151.64 593.18 152.75 593.04&#10;  C 154.83 592.77 157.49 591.42 156.82 589.23&#10;  Q 156.49 588.15 156.60 586.73&#10;  Q 156.73 585.07 156.29 581.59&#10;  A 1.69 1.69 0.0 0 1 157.97 579.69&#10;  L 158.35 579.69&#10;  A 1.59 1.58 90.0 0 1 159.93 581.28&#10;  L 159.93 591.25&#10;  A 3.60 3.59 -8.7 0 1 157.41 594.68&#10;  L 150.05 597.00&#10;  Z"/>
<path fill="#000000" fill-opacity="0.992" d="&#10;  M 334.07 597.00&#10;  L 331.74 597.00&#10;  Q 330.71 591.19 331.02 584.51&#10;  A 0.45 0.45 0.0 0 0 330.95 584.27&#10;  L 318.30 565.01&#10;  A 0.09 0.03 16.8 0 1 318.27 564.99&#10;  Q 317.09 564.38 316.91 562.66&#10;  A 0.56 0.56 0.0 0 1 317.41 562.05&#10;  Q 319.66 561.84 320.61 563.13&#10;  Q 324.85 568.88 331.76 579.73&#10;  A 1.63 1.63 0.0 0 0 334.62 579.53&#10;  L 335.18 578.31&#10;  A 4.05 3.57 -19.6 0 1 335.49 577.75&#10;  L 344.73 563.91&#10;  A 3.10 3.06 -76.6 0 1 346.89 562.56&#10;  L 347.88 562.43&#10;  A 0.86 0.85 13.0 0 1 348.71 563.75&#10;  L 336.78 581.49&#10;  A 0.46 0.42 87.4 0 1 336.68 581.61&#10;  L 335.25 583.06&#10;  A 1.71 1.68 -22.1 0 0 334.78 584.15&#10;  L 334.07 597.00&#10;  Z"/>
<path fill="#000000" fill-opacity="0.992" d="&#10;  M 114.33 597.00&#10;  L 112.42 597.00&#10;  L 107.80 588.80&#10;  A 2.61 2.61 0.0 0 0 105.53 587.48&#10;  L 88.82 587.48&#10;  A 2.57 2.55 13.0 0 0 86.52 588.91&#10;  L 83.17 595.76&#10;  A 0.77 0.75 -7.2 0 1 82.93 596.06&#10;  L 81.73 597.00&#10;  L 79.34 597.00&#10;  L 95.14 563.42&#10;  A 1.62 1.57 -3.2 0 1 95.78 562.73&#10;  Q 97.93 561.48 99.80 563.53&#10;  A 0.77 0.70 -79.1 0 1 99.94 563.76&#10;  Q 107.75 580.57 115.16 595.50&#10;  Q 115.58 596.34 114.33 597.00&#10;  Z&#10;  M 96.55 568.31&#10;  L 89.03 583.69&#10;  A 0.95 0.95 0.0 0 0 89.88 585.05&#10;  L 104.42 585.05&#10;  A 0.92 0.91 88.8 0 0 105.33 584.09&#10;  C 105.24 582.00 103.85 580.57 103.14 578.69&#10;  Q 101.43 574.19 98.30 568.28&#10;  A 0.98 0.98 0.0 0 0 96.55 568.31&#10;  Z"/>
<path fill="#000000" fill-opacity="0.992" d="&#10;  M 293.37 597.00&#10;  L 286.56 597.00&#10;  C 280.32 594.80 275.68 592.49 273.34 585.71&#10;  Q 270.16 576.48 275.74 569.12&#10;  Q 278.20 565.89 283.99 563.25&#10;  A 1.28 1.11 25.9 0 1 284.40 563.14&#10;  L 290.29 562.35&#10;  A 0.81 0.81 0.0 0 1 290.47 562.35&#10;  Q 297.88 562.88 303.23 567.51&#10;  A 0.59 0.57 -52.3 0 1 303.32 568.29&#10;  L 302.55 569.37&#10;  A 0.82 0.81 32.7 0 1 301.47 569.60&#10;  Q 300.12 568.80 300.03 568.74&#10;  Q 295.50 565.56 290.35 565.32&#10;  Q 285.37 565.09 281.12 568.36&#10;  Q 277.15 571.41 276.16 576.63&#10;  C 274.65 584.60 279.30 591.78 287.09 593.92&#10;  Q 288.23 594.23 291.31 594.13&#10;  A 4.42 4.36 33.6 0 0 292.74 593.85&#10;  Q 294.87 593.07 295.80 593.06&#10;  A 5.82 5.79 -66.4 0 0 298.54 591.98&#10;  L 301.34 589.92&#10;  A 1.05 1.05 0.0 0 1 302.84 590.19&#10;  L 303.16 590.68&#10;  A 1.31 1.30 -34.5 0 1 302.83 592.45&#10;  L 299.94 594.54&#10;  A 1.93 1.49 -66.3 0 1 299.61 594.72&#10;  L 293.37 597.00&#10;  Z"/>
<path fill="#000000" fill-opacity="0.992" d="&#10;  M 252.35 597.00&#10;  L 250.48 597.00&#10;  L 228.39 570.45&#10;  A 0.41 0.41 0.0 0 0 227.71 570.52&#10;  Q 227.15 571.57 227.27 572.07&#10;  C 227.70 573.86 227.20 576.06 227.26 577.89&#10;  Q 227.59 587.51 226.81 597.00&#10;  L 224.07 597.00&#10;  L 223.99 563.96&#10;  A 1.04 1.03 70.8 0 1 224.38 563.15&#10;  Q 226.01 561.92 227.26 563.34&#10;  Q 236.87 574.33 247.97 588.74&#10;  A 1.00 1.00 0.0 0 0 249.77 588.12&#10;  Q 249.74 581.52 249.68 580.71&#10;  C 249.31 575.76 250.24 569.23 249.18 564.67&#10;  A 1.04 1.03 -30.0 0 1 249.43 563.74&#10;  Q 250.31 562.77 251.02 562.52&#10;  A 1.62 1.58 80.5 0 1 253.13 564.07&#10;  Q 253.08 576.93 253.08 591.96&#10;  Q 253.08 593.41 253.49 595.14&#10;  A 1.20 1.16 -36.4 0 1 253.34 596.03&#10;  Q 253.01 596.58 252.35 597.00&#10;  Z"/>
<path fill="#000000" fill-opacity="0.992" d="&#10;  M 190.86 597.00&#10;  L 182.34 597.00&#10;  Q 181.79 596.80 181.41 596.41&#10;  A 1.26 1.23 -67.6 0 1 181.06 595.54&#10;  L 181.06 563.84&#10;  A 0.82 0.82 0.0 0 1 181.88 563.02&#10;  L 204.26 563.02&#10;  A 1.07 1.06 -90.0 0 1 205.32 564.09&#10;  L 205.32 564.60&#10;  A 1.30 1.30 0.0 0 1 204.02 565.90&#10;  L 186.15 565.90&#10;  A 1.43 1.42 90.0 0 0 184.73 567.33&#10;  L 184.73 576.93&#10;  A 1.19 1.19 0.0 0 0 185.92 578.12&#10;  L 201.54 578.12&#10;  A 1.19 1.18 2.8 0 1 202.72 579.42&#10;  L 202.68 579.91&#10;  A 1.16 1.16 0.0 0 1 201.53 580.95&#10;  L 185.64 580.95&#10;  A 0.94 0.94 0.0 0 0 184.70 581.89&#10;  L 184.70 592.74&#10;  A 1.17 1.17 0.0 0 0 185.87 593.91&#10;  L 204.60 593.91&#10;  A 1.12 1.12 0.0 0 1 205.72 595.03&#10;  L 205.72 595.60&#10;  A 1.25 1.25 0.0 0 1 204.48 596.85&#10;  L 190.86 597.00&#10;  Z"/>
</svg>